<svg width="474" height="433" viewBox="0 0 474 433" fill="none" xmlns="http://www.w3.org/2000/svg">
<path d="M268 2.04068C330.025 -7.46742 408.479 17.0073 446.034 59.6823C483.787 102.583 480.972 166.415 451.605 213.746C426.965 253.459 385.055 264.814 347.5 296.541C292.1 343.342 271.056 432.827 192.616 432.54C118.633 432.269 135.362 325.104 98.6619 270.965C69.4408 227.859 -16.7002 199.445 2.85952 152.617C23.2011 103.917 92.9324 109.744 145 82.5406C189.165 59.4658 216.875 9.87775 268 2.04068Z" fill="#F2F2F2"/>
<path d="M253.333 345.333V186" stroke="#DFDFDF" stroke-width="7" stroke-linecap="round" stroke-linejoin="round"/>
<path d="M231.187 263.157C230.72 265.577 271.274 330.224 274.52 330.224C278.684 330.224 288.243 323.13 288.243 321.127C288.243 319.124 269.98 272.56 269.98 264.697C269.98 256.834 235.194 242.334 231.187 263.157Z" fill="#006EA1"/>
<path d="M224 363.333V186" stroke="#DFDFDF" stroke-width="7" stroke-linecap="round" stroke-linejoin="round"/>
<path d="M400.138 128.903L389.236 126.334L347.444 303.68L358.346 306.249L400.138 128.903Z" fill="#DFDFDF"/>
<path d="M358.336 306.268L360.905 295.366L258.893 271.327L256.324 282.228L358.336 306.268Z" fill="#DFDFDF"/>
<path d="M279.667 67H224V104.667H279.667V67Z" fill="#DFDFDF"/>
<path d="M289.833 85.8333L264.833 80V91.6667L289.833 85.8333Z" fill="#DFDFDF"/>
<path d="M239.167 88.6667C240.731 88.6667 242 87.3981 242 85.8333C242 84.2685 240.731 83 239.167 83C237.602 83 236.333 84.2685 236.333 85.8333C236.333 87.3981 237.602 88.6667 239.167 88.6667Z" fill="white"/>
<path d="M251.833 88.6667C253.398 88.6667 254.667 87.3981 254.667 85.8333C254.667 84.2685 253.398 83 251.833 83C250.269 83 249 84.2685 249 85.8333C249 87.3981 250.269 88.6667 251.833 88.6667Z" fill="white"/>
<path d="M264.5 88.6667C266.065 88.6667 267.333 87.3981 267.333 85.8333C267.333 84.2685 266.065 83 264.5 83C262.935 83 261.667 84.2685 261.667 85.8333C261.667 87.3981 262.935 88.6667 264.5 88.6667Z" fill="white"/>
<path d="M297.604 176.033C303.667 148.61 317 117.12 341.397 107.563" stroke="black" stroke-width="2.5" stroke-linecap="round" stroke-linejoin="round"/>
<path d="M364.177 106C374.333 110.073 378.667 122.63 378.667 132C378.667 184.333 367.893 236.707 361.667 240.667C350.667 247.667 299.293 231 294.667 220C293.297 216.743 293.027 207.533 294.333 195.647" stroke="black" stroke-width="2.5" stroke-linecap="round" stroke-linejoin="round"/>
<path d="M341.397 107.563C341.727 103.349 341.779 99.1176 341.553 94.8965" stroke="black" stroke-width="2.5" stroke-linecap="round" stroke-linejoin="round"/>
<path d="M360.333 79.333C360 81.333 360.667 98.333 365.333 109C364.31 110.636 358.14 113.526 351.833 114.13" stroke="black" stroke-width="2.5" stroke-linecap="round" stroke-linejoin="round"/>
<path d="M353.467 78.8503C350.727 88.7637 344.61 95.667 337.5 95.667C327.833 95.667 320 82.907 320 67.167C319.998 64.6544 320.203 62.1458 320.613 59.667" stroke="black" stroke-width="2.5" stroke-linecap="round" stroke-linejoin="round"/>
<path d="M314.167 58.9633C301.307 56.1967 299.333 46 299.333 42C299.333 29.6667 310.333 29.3333 315 26.6667C320.313 23.63 324.333 18 332 18C339.333 18 344.833 25 349.333 27.3333C357 31.3333 375.333 30.6667 375.333 44.6667C375.333 54.6667 371.667 57.3333 371.667 62C371.667 64.6667 372.333 65.6667 372.333 71C372.333 77.1033 367 80.4167 363.22 81.1667" stroke="black" stroke-width="2.5" stroke-linecap="round" stroke-linejoin="round"/>
<path d="M352.167 64C353.802 64 355.371 64.6497 356.527 65.8062C357.684 66.9626 358.333 68.5312 358.333 70.1667C358.333 71.8022 357.684 73.3707 356.527 74.5272C355.371 75.6836 353.802 76.3333 352.167 76.3333" stroke="black" stroke-width="2.5" stroke-linecap="round" stroke-linejoin="round"/>
<path d="M334.833 170C332.97 174.47 330.167 182.333 329.667 189.667C324.667 187.667 276.667 166 267.667 166C250 166 245.333 171.667 245.333 174.333C245.333 179.333 267 178.667 270 180.333C273 182 332.333 220.667 339.667 220.667C346.29 220.667 361.893 195.097 365.333 184.503" stroke="black" stroke-width="2.5" stroke-linecap="round" stroke-linejoin="round"/>
<path d="M373.75 174.167C371.817 180.334 369.443 184.571 367.333 184.667C360 185.001 333.333 171.001 331.333 166.667C330 163.811 340 143.844 351.55 132.777" stroke="black" stroke-width="2.5" stroke-linecap="round" stroke-linejoin="round"/>
<path d="M261.667 181.667H91.6667V188.334H261.667V181.667Z" fill="#DFDFDF"/>
<path d="M102 363.333V186" stroke="#DFDFDF" stroke-width="7" stroke-linecap="round" stroke-linejoin="round"/>
<path d="M132.667 345.333V186" stroke="#DFDFDF" stroke-width="7" stroke-linecap="round" stroke-linejoin="round"/>
<path d="M254.667 178H216.333V181.667H254.667V178Z" fill="black"/>
<path d="M198.342 131.007L215.898 180.174L216.937 179.803L199.381 130.636L198.342 131.007Z" fill="black"/>
<path d="M340.757 299.867L364.017 369.644" stroke="#DFDFDF" stroke-width="7" stroke-linecap="round" stroke-linejoin="round"/>
<path d="M284.247 337.816L262.15 367.183" stroke="#DFDFDF" stroke-width="7" stroke-linecap="round" stroke-linejoin="round"/>
<path d="M316.21 295.541L291.83 327.941" stroke="#DFDFDF" stroke-width="7" stroke-linecap="round" stroke-linejoin="round"/>
<path d="M280.08 287.026L226.587 358.113" stroke="#DFDFDF" stroke-width="7" stroke-linecap="round" stroke-linejoin="round"/>
<path d="M305.727 293.557L328.987 363.333" stroke="#DFDFDF" stroke-width="7" stroke-linecap="round" stroke-linejoin="round"/>
<path d="M359.03 241.737C344.18 245.52 299 230.277 294.667 220C294.347 219.156 294.123 218.278 294 217.383C274.367 212.333 253.22 208.613 234.823 208.613C204.573 208.613 179.823 341.08 179.823 343.363C182.25 344.077 198.663 346.363 198.663 346.363C198.663 346.363 239.78 262.43 240.923 256.72C245.063 259.573 297.22 286.693 317.357 286.693C339.427 286.693 360.113 264.027 360.113 243.157C360.113 242.803 359.74 242.333 359.03 241.737Z" fill="#006EA1"/>
<path d="M198.09 344.864L193.86 370.04L153.66 363.664L185.46 357.477L188.127 343.2" stroke="black" stroke-width="2.5" stroke-linecap="round" stroke-linejoin="round"/>
<path d="M286.1 320.964L300.627 341.961L267.367 365.421L285.847 338.811L277.8 326.721" stroke="black" stroke-width="2.5" stroke-linecap="round" stroke-linejoin="round"/>
</svg>
